<svg xmlns="http://www.w3.org/2000/svg" viewBox="0 0 64 64" width="64" height="64">
  <defs>
    <linearGradient id="bg" x1="0" y1="0" x2="0" y2="1">
      <stop offset="0%" stop-color="#2e7048"/>
      <stop offset="100%" stop-color="#1f4830"/>
    </linearGradient>
  </defs>
  <rect width="64" height="64" rx="14" fill="url(#bg)"/>
  <path d="M50 18c-6 1-10 4-12 9-1-6-5-10-11-12 1 7 4 11 9 13-5 1-9 5-10 11 6-1 10-4 12-9 1 6 5 10 11 12-1-7-4-11-9-13 5-1 9-5 10-11z" fill="#3f8a5b" opacity=".35"/>
  <text x="32" y="42" text-anchor="middle" font-family="'Plus Jakarta Sans','Inter',system-ui,sans-serif" font-weight="800" font-size="26" fill="#ffffff" letter-spacing="-1">LT</text>
</svg>
